<svg width="1900" height="3778" viewBox="0 0 1900 3778" fill="none" xmlns="http://www.w3.org/2000/svg">
<g clip-path="url(#clip0_3_6)">
<g style="mix-blend-mode:overlay">
<g style="mix-blend-mode:overlay">
<path d="M2379.62 4384.17L859.014 3330L-413.178 2052.6L-479 2079.01" stroke="url(#paint0_linear_3_6)" stroke-linecap="round" stroke-linejoin="round"/>
</g>
<g style="mix-blend-mode:overlay">
<path d="M2379.62 358.917L1333.79 321.36L633.311 158.341L333.99 154.35L52.0199 137.919L-213.537 111.747L-479 -219.925" stroke="url(#paint1_linear_3_6)" stroke-linecap="round" stroke-linejoin="round"/>
</g>
<g style="mix-blend-mode:overlay">
<path d="M2379.62 728.263L1449.47 659.84L590.385 426.636L244.972 453.982L-213.537 111.747L-464.498 79.0027L-479 76.7727" stroke="url(#paint2_linear_3_6)" stroke-linecap="round" stroke-linejoin="round"/>
</g>
<g style="mix-blend-mode:overlay">
<path d="M2379.62 3220.85L1571.26 2860.78L103.246 1857.31L-413.178 2052.6L-479 1952.14" stroke="url(#paint3_linear_3_6)" stroke-linecap="round" stroke-linejoin="round"/>
</g>
<g style="mix-blend-mode:overlay">
<path d="M2379.62 13.2776L1632.02 69.847L1283.59 118.084L859.146 29.1215L698.702 -4.56205L688.509 -6.67453L286.773 -193.167L48.9658 -387.992L24.1958 -408.296L-123.881 -613.801L-136.585 -631.406L-224.442 -850.173L-323.522 -946.764L-415.763 -1042.18L-479 -1110.49" stroke="url(#paint4_linear_3_6)" stroke-linecap="round" stroke-linejoin="round"/>
</g>
<g style="mix-blend-mode:overlay">
<path d="M2379.62 1345.13L1698.18 1250.07L575.058 871.449L162.961 952.665L-395.584 474.992L-479 475.226" stroke="url(#paint5_linear_3_6)" stroke-linecap="round" stroke-linejoin="round"/>
</g>
<g style="mix-blend-mode:overlay">
<path d="M2379.62 199.065L1730.82 237.678L1333.79 321.359L953.41 383.445L590.385 426.635L52.0199 137.918L-262.89 -152.676L-276.699 -165.469L-459.757 -451.486L-466.334 -461.697L-479 -498.549" stroke="url(#paint6_linear_3_6)" stroke-linecap="round" stroke-linejoin="round"/>
</g>
<g style="mix-blend-mode:overlay">
<path d="M2379.62 360.676L1910.22 521.935L953.41 383.445L333.99 154.35L-36.3428 -97.6319L-58.5834 -112.655L-276.699 -165.469L-479 -222.273" stroke="url(#paint7_linear_3_6)" stroke-linecap="round" stroke-linejoin="round"/>
</g>
<g style="mix-blend-mode:overlay">
<path d="M2379.62 507.617L1910.22 521.935L1449.47 659.839L1004.32 774.973L575.058 871.447L-82.8664 468.769L-464.498 79.0014L-479 54.0027" stroke="url(#paint8_linear_3_6)" stroke-linecap="round" stroke-linejoin="round"/>
</g>
<g style="mix-blend-mode:overlay">
<path d="M2379.62 -60.1923L1995.36 -0.219201L1267.72 -2.68376L970.817 3.18447L688.509 -6.6741L423.477 -30.9686L174.315 -67.1169L-58.5834 -112.654L-285.823 -374.729L-297.44 -388.109L-430.828 -655.348L-479 -853.811" stroke="url(#paint9_linear_3_6)" stroke-linecap="round" stroke-linejoin="round"/>
</g>
<g style="mix-blend-mode:overlay">
<path d="M2379.62 96.2543L2140.82 131.112L1283.59 118.084L949.644 147.19L633.311 158.34L207.442 -50.8034L174.315 -67.117L-97.0314 -300.79L-116.405 -317.455L-280.952 -557.348L-290.227 -570.845L-381.775 -814.611L-479 -895.358" stroke="url(#paint10_linear_3_6)" stroke-linecap="round" stroke-linejoin="round"/>
</g>
<g style="mix-blend-mode:overlay">
<path d="M2379.62 957.358L2249.55 1017.1L1004.32 774.974L244.972 453.982L-82.8664 468.77L-395.584 474.99L-479 357.273" stroke="url(#paint11_linear_3_6)" stroke-linecap="round" stroke-linejoin="round"/>
</g>
<g style="mix-blend-mode:overlay">
<path d="M2379.62 1019.68L2249.55 1017.1L1698.18 1250.06L1155.99 1464.25L626.06 1663.77L-235.384 1024.26L-479 733.074" stroke="url(#paint12_linear_3_6)" stroke-linecap="round" stroke-linejoin="round"/>
</g>
<g style="mix-blend-mode:overlay">
<path d="M2379.62 2341.67L2267.93 2413.38L626.06 1663.78L103.246 1857.31L-479 1240.56" stroke="url(#paint13_linear_3_6)" stroke-linecap="round" stroke-linejoin="round"/>
</g>
<g style="mix-blend-mode:overlay">
<path d="M2379.62 2442.25L2267.93 2413.38L1571.26 2860.77L859.014 3330L126.892 3842.53L-479 2939.06" stroke="url(#paint14_linear_3_6)" stroke-linecap="round" stroke-linejoin="round"/>
</g>
<g style="mix-blend-mode:overlay">
<path d="M2379.62 -444.092L2361.8 -501.835L2285.43 -649.48L2209.86 -788.322L2135.68 -918.244L2061.92 -1040.66L1989.2 -1155.09L1916.56 -1263.18L1844.57 -1364.23L1772.28 -1459.53L1700.32 -1548.37L1627.6 -1631.94L1554.9 -1709.52L1481.06 -1781.81L1406.9 -1848.12L1331.22 -1909.04L1254.92 -1963.84L1176.85 -2012.67L1097.87 -2054.92L1016.93 -2090.48L934.955 -2118.65L850.976 -2138.84L765.967 -2150.57L679.141 -2153.04L591.565 -2145.76L502.715 -2127.45L413.772 -2097.64L324.678 -2054.92L236.859 -1998.82L150.875 -1927.81L68.6583 -1841.43L-8.12514 -1738.15L-76.5707 -1617.74L-133.212 -1479.01L-173.29 -1322.33L-190.172 -1147.57L-175.464 -956.975L-116.855 -753.113L-107.318 -735.977L0.962213 -542.209L21.0106 -521.318L200.659 -333.769L241.168 -308.888L510.285 -143.639L574.552 -123.217L970.817 3.18416L1632.02 69.8471L1995.36 -0.219509L2367.48 -90.9422L2379.62 -94.463" stroke="url(#paint15_linear_3_6)" stroke-linecap="round" stroke-linejoin="round"/>
</g>
<g style="mix-blend-mode:overlay">
<path d="M2379.62 -617.791L2371.17 -643.728L2296.33 -781.866L2222.72 -911.671L2150.9 -1032.56L2079.96 -1146.52L2010.52 -1252.73L1941.53 -1353.08L1873.73 -1446.85L1805.99 -1535.46L1739.04 -1618.44L1671.76 -1696.72L1604.91 -1769.96L1537.27 -1838.97L1469.7 -1903.17L1400.92 -1963.26L1331.82 -2018.54L1261.11 -2069.59L1189.72 -2115.6L1116.36 -2156.91L1042.02 -2192.94L965.402 -2223.22L887.569 -2247.51L807.32 -2265L725.702 -2275.45L641.724 -2277.68L556.452 -2271.57L469.101 -2255.49L380.832 -2229.32L291.27 -2191.41L201.671 -2141.3L112.203 -2077.22L24.5331 -1998.7L-60.3259 -1903.87L-139.995 -1792.14L-212 -1661.86L-272.445 -1512.69L-316.289 -1343.46L-336.581 -1154.62L-323.522 -946.763L-263.976 -722.832L-138.796 -487.868L-122.719 -470.381L77.7457 -251.731L107.05 -233.07L423.477 -30.9681L473.074 -14.1851L949.644 147.191L1730.82 237.679L2140.82 131.112L2379.62 56.4686" stroke="url(#paint16_linear_3_6)" stroke-linecap="round" stroke-linejoin="round"/>
</g>
<g style="mix-blend-mode:overlay">
<path d="M2379.62 1807.19L2185.81 1752.85L1155.99 1464.26L162.961 952.664L-235.384 1024.26L-479 1066.27" stroke="url(#paint17_linear_3_6)" stroke-linecap="round" stroke-linejoin="round"/>
</g>
</g>
<g style="mix-blend-mode:overlay">
<g style="mix-blend-mode:overlay">
<path d="M2379.62 4384.17L859.014 3330L-413.178 2052.6L-479 2079.01" stroke="url(#paint18_linear_3_6)" stroke-linecap="round" stroke-linejoin="round"/>
</g>
<g style="mix-blend-mode:overlay">
<path d="M2379.62 358.917L1333.79 321.36L633.311 158.341L333.99 154.35L52.0199 137.919L-213.537 111.747L-479 -219.925" stroke="url(#paint19_linear_3_6)" stroke-linecap="round" stroke-linejoin="round"/>
</g>
<g style="mix-blend-mode:overlay">
<path d="M2379.62 728.263L1449.47 659.84L590.385 426.636L244.972 453.982L-213.537 111.747L-464.498 79.0027L-479 76.7727" stroke="url(#paint20_linear_3_6)" stroke-linecap="round" stroke-linejoin="round"/>
</g>
<g style="mix-blend-mode:overlay">
<path d="M2379.62 3220.85L1571.26 2860.78L103.246 1857.31L-413.178 2052.6L-479 1952.14" stroke="url(#paint21_linear_3_6)" stroke-linecap="round" stroke-linejoin="round"/>
</g>
<g style="mix-blend-mode:overlay">
<path d="M2379.62 13.2776L1632.02 69.847L1283.59 118.084L859.146 29.1215L698.702 -4.56205L688.509 -6.67453L286.773 -193.167L48.9658 -387.992L24.1958 -408.296L-123.881 -613.801L-136.585 -631.406L-224.442 -850.173L-323.522 -946.764L-415.763 -1042.18L-479 -1110.49" stroke="url(#paint22_linear_3_6)" stroke-linecap="round" stroke-linejoin="round"/>
</g>
<g style="mix-blend-mode:overlay">
<path d="M2379.62 1345.13L1698.18 1250.07L575.058 871.449L162.961 952.665L-395.584 474.992L-479 475.226" stroke="url(#paint23_linear_3_6)" stroke-linecap="round" stroke-linejoin="round"/>
</g>
<g style="mix-blend-mode:overlay">
<path d="M2379.62 199.065L1730.82 237.678L1333.79 321.359L953.41 383.445L590.385 426.635L52.0199 137.918L-262.89 -152.676L-276.699 -165.469L-459.757 -451.486L-466.334 -461.697L-479 -498.549" stroke="url(#paint24_linear_3_6)" stroke-linecap="round" stroke-linejoin="round"/>
</g>
<g style="mix-blend-mode:overlay">
<path d="M2379.62 360.676L1910.22 521.935L953.41 383.445L333.99 154.35L-36.3428 -97.6319L-58.5834 -112.655L-276.699 -165.469L-479 -222.273" stroke="url(#paint25_linear_3_6)" stroke-linecap="round" stroke-linejoin="round"/>
</g>
<g style="mix-blend-mode:overlay">
<path d="M2379.62 507.617L1910.22 521.935L1449.47 659.839L1004.32 774.973L575.058 871.447L-82.8664 468.769L-464.498 79.0014L-479 54.0027" stroke="url(#paint26_linear_3_6)" stroke-linecap="round" stroke-linejoin="round"/>
</g>
<g style="mix-blend-mode:overlay">
<path d="M2379.62 -60.1923L1995.36 -0.219201L1267.72 -2.68376L970.817 3.18447L688.509 -6.6741L423.477 -30.9686L174.315 -67.1169L-58.5834 -112.654L-285.823 -374.729L-297.44 -388.109L-430.828 -655.348L-479 -853.811" stroke="url(#paint27_linear_3_6)" stroke-linecap="round" stroke-linejoin="round"/>
</g>
<g style="mix-blend-mode:overlay">
<path d="M2379.62 96.2543L2140.82 131.112L1283.59 118.084L949.644 147.19L633.311 158.34L207.442 -50.8034L174.315 -67.117L-97.0314 -300.79L-116.405 -317.455L-280.952 -557.348L-290.227 -570.845L-381.775 -814.611L-479 -895.358" stroke="url(#paint28_linear_3_6)" stroke-linecap="round" stroke-linejoin="round"/>
</g>
<g style="mix-blend-mode:overlay">
<path d="M2379.62 957.358L2249.55 1017.1L1004.32 774.974L244.972 453.982L-82.8664 468.77L-395.584 474.99L-479 357.273" stroke="url(#paint29_linear_3_6)" stroke-linecap="round" stroke-linejoin="round"/>
</g>
<g style="mix-blend-mode:overlay">
<path d="M2379.62 1019.68L2249.55 1017.1L1698.18 1250.06L1155.99 1464.25L626.06 1663.77L-235.384 1024.26L-479 733.074" stroke="url(#paint30_linear_3_6)" stroke-linecap="round" stroke-linejoin="round"/>
</g>
<g style="mix-blend-mode:overlay">
<path d="M2379.62 2341.67L2267.93 2413.38L626.06 1663.78L103.246 1857.31L-479 1240.56" stroke="url(#paint31_linear_3_6)" stroke-linecap="round" stroke-linejoin="round"/>
</g>
<g style="mix-blend-mode:overlay">
<path d="M2379.62 2442.25L2267.93 2413.38L1571.26 2860.77L859.014 3330L126.892 3842.53L-479 2939.06" stroke="url(#paint32_linear_3_6)" stroke-linecap="round" stroke-linejoin="round"/>
</g>
<g style="mix-blend-mode:overlay">
<path d="M2379.62 -444.092L2361.8 -501.835L2285.43 -649.48L2209.86 -788.322L2135.68 -918.244L2061.92 -1040.66L1989.2 -1155.09L1916.56 -1263.18L1844.57 -1364.23L1772.28 -1459.53L1700.32 -1548.37L1627.6 -1631.94L1554.9 -1709.52L1481.06 -1781.81L1406.9 -1848.12L1331.22 -1909.04L1254.92 -1963.84L1176.85 -2012.67L1097.87 -2054.92L1016.93 -2090.48L934.955 -2118.65L850.976 -2138.84L765.967 -2150.57L679.141 -2153.04L591.565 -2145.76L502.715 -2127.45L413.772 -2097.64L324.678 -2054.92L236.859 -1998.82L150.875 -1927.81L68.6583 -1841.43L-8.12514 -1738.15L-76.5707 -1617.74L-133.212 -1479.01L-173.29 -1322.33L-190.172 -1147.57L-175.464 -956.975L-116.855 -753.113L-107.318 -735.977L0.962213 -542.209L21.0106 -521.318L200.659 -333.769L241.168 -308.888L510.285 -143.639L574.552 -123.217L970.817 3.18416L1632.02 69.8471L1995.36 -0.219509L2367.48 -90.9422L2379.62 -94.463" stroke="url(#paint33_linear_3_6)" stroke-linecap="round" stroke-linejoin="round"/>
</g>
<g style="mix-blend-mode:overlay">
<path d="M2379.62 -617.791L2371.17 -643.728L2296.33 -781.866L2222.72 -911.671L2150.9 -1032.56L2079.96 -1146.52L2010.52 -1252.73L1941.53 -1353.08L1873.73 -1446.85L1805.99 -1535.46L1739.04 -1618.44L1671.76 -1696.72L1604.91 -1769.96L1537.27 -1838.97L1469.7 -1903.17L1400.92 -1963.26L1331.82 -2018.54L1261.11 -2069.59L1189.72 -2115.6L1116.36 -2156.91L1042.02 -2192.94L965.402 -2223.22L887.569 -2247.51L807.32 -2265L725.702 -2275.45L641.724 -2277.68L556.452 -2271.57L469.101 -2255.49L380.832 -2229.32L291.27 -2191.41L201.671 -2141.3L112.203 -2077.22L24.5331 -1998.7L-60.3259 -1903.87L-139.995 -1792.14L-212 -1661.86L-272.445 -1512.69L-316.289 -1343.46L-336.581 -1154.62L-323.522 -946.763L-263.976 -722.832L-138.796 -487.868L-122.719 -470.381L77.7457 -251.731L107.05 -233.07L423.477 -30.9681L473.074 -14.1851L949.644 147.191L1730.82 237.679L2140.82 131.112L2379.62 56.4686" stroke="url(#paint34_linear_3_6)" stroke-linecap="round" stroke-linejoin="round"/>
</g>
<g style="mix-blend-mode:overlay">
<path d="M2379.62 1807.19L2185.81 1752.85L1155.99 1464.26L162.961 952.664L-235.384 1024.26L-479 1066.27" stroke="url(#paint35_linear_3_6)" stroke-linecap="round" stroke-linejoin="round"/>
</g>
</g>
</g>
<defs>
<linearGradient id="paint0_linear_3_6" x1="950.31" y1="2052.6" x2="950.31" y2="4384.17" gradientUnits="userSpaceOnUse">
<stop stop-color="#A98AF4"/>
<stop offset="1" stop-color="#CC8CF2"/>
</linearGradient>
<linearGradient id="paint1_linear_3_6" x1="950.31" y1="-219.925" x2="950.31" y2="358.917" gradientUnits="userSpaceOnUse">
<stop stop-color="#A98AF4"/>
<stop offset="1" stop-color="#CC8CF2"/>
</linearGradient>
<linearGradient id="paint2_linear_3_6" x1="950.31" y1="76.7727" x2="950.31" y2="728.263" gradientUnits="userSpaceOnUse">
<stop stop-color="#A98AF4"/>
<stop offset="1" stop-color="#CC8CF2"/>
</linearGradient>
<linearGradient id="paint3_linear_3_6" x1="950.31" y1="1857.31" x2="950.31" y2="3220.85" gradientUnits="userSpaceOnUse">
<stop stop-color="#A98AF4"/>
<stop offset="1" stop-color="#CC8CF2"/>
</linearGradient>
<linearGradient id="paint4_linear_3_6" x1="950.31" y1="-1110.49" x2="950.31" y2="118.084" gradientUnits="userSpaceOnUse">
<stop stop-color="#A98AF4"/>
<stop offset="1" stop-color="#CC8CF2"/>
</linearGradient>
<linearGradient id="paint5_linear_3_6" x1="950.31" y1="474.992" x2="950.31" y2="1345.13" gradientUnits="userSpaceOnUse">
<stop stop-color="#A98AF4"/>
<stop offset="1" stop-color="#CC8CF2"/>
</linearGradient>
<linearGradient id="paint6_linear_3_6" x1="950.31" y1="-498.549" x2="950.31" y2="426.635" gradientUnits="userSpaceOnUse">
<stop stop-color="#A98AF4"/>
<stop offset="1" stop-color="#CC8CF2"/>
</linearGradient>
<linearGradient id="paint7_linear_3_6" x1="950.31" y1="-222.273" x2="950.31" y2="521.935" gradientUnits="userSpaceOnUse">
<stop stop-color="#A98AF4"/>
<stop offset="1" stop-color="#CC8CF2"/>
</linearGradient>
<linearGradient id="paint8_linear_3_6" x1="950.31" y1="54.0027" x2="950.31" y2="871.447" gradientUnits="userSpaceOnUse">
<stop stop-color="#A98AF4"/>
<stop offset="1" stop-color="#CC8CF2"/>
</linearGradient>
<linearGradient id="paint9_linear_3_6" x1="950.31" y1="-853.811" x2="950.31" y2="3.18445" gradientUnits="userSpaceOnUse">
<stop stop-color="#A98AF4"/>
<stop offset="1" stop-color="#CC8CF2"/>
</linearGradient>
<linearGradient id="paint10_linear_3_6" x1="950.31" y1="-895.358" x2="950.31" y2="158.34" gradientUnits="userSpaceOnUse">
<stop stop-color="#A98AF4"/>
<stop offset="1" stop-color="#CC8CF2"/>
</linearGradient>
<linearGradient id="paint11_linear_3_6" x1="950.31" y1="357.273" x2="950.31" y2="1017.1" gradientUnits="userSpaceOnUse">
<stop stop-color="#A98AF4"/>
<stop offset="1" stop-color="#CC8CF2"/>
</linearGradient>
<linearGradient id="paint12_linear_3_6" x1="950.31" y1="733.074" x2="950.31" y2="1663.77" gradientUnits="userSpaceOnUse">
<stop stop-color="#A98AF4"/>
<stop offset="1" stop-color="#CC8CF2"/>
</linearGradient>
<linearGradient id="paint13_linear_3_6" x1="950.31" y1="1240.56" x2="950.31" y2="2413.38" gradientUnits="userSpaceOnUse">
<stop stop-color="#A98AF4"/>
<stop offset="1" stop-color="#CC8CF2"/>
</linearGradient>
<linearGradient id="paint14_linear_3_6" x1="950.31" y1="2413.38" x2="950.31" y2="3842.53" gradientUnits="userSpaceOnUse">
<stop stop-color="#A98AF4"/>
<stop offset="1" stop-color="#CC8CF2"/>
</linearGradient>
<linearGradient id="paint15_linear_3_6" x1="1094.72" y1="-2153.04" x2="1094.72" y2="69.8472" gradientUnits="userSpaceOnUse">
<stop stop-color="#A98AF4"/>
<stop offset="1" stop-color="#CC8CF2"/>
</linearGradient>
<linearGradient id="paint16_linear_3_6" x1="1021.52" y1="-2277.68" x2="1021.52" y2="237.679" gradientUnits="userSpaceOnUse">
<stop stop-color="#A98AF4"/>
<stop offset="1" stop-color="#CC8CF2"/>
</linearGradient>
<linearGradient id="paint17_linear_3_6" x1="950.31" y1="952.664" x2="950.31" y2="1807.19" gradientUnits="userSpaceOnUse">
<stop stop-color="#A98AF4"/>
<stop offset="1" stop-color="#CC8CF2"/>
</linearGradient>
<linearGradient id="paint18_linear_3_6" x1="950.31" y1="2052.6" x2="950.31" y2="4384.17" gradientUnits="userSpaceOnUse">
<stop stop-color="#A98AF4"/>
<stop offset="1" stop-color="#CC8CF2"/>
</linearGradient>
<linearGradient id="paint19_linear_3_6" x1="950.31" y1="-219.925" x2="950.31" y2="358.917" gradientUnits="userSpaceOnUse">
<stop stop-color="#A98AF4"/>
<stop offset="1" stop-color="#CC8CF2"/>
</linearGradient>
<linearGradient id="paint20_linear_3_6" x1="950.31" y1="76.7727" x2="950.31" y2="728.263" gradientUnits="userSpaceOnUse">
<stop stop-color="#A98AF4"/>
<stop offset="1" stop-color="#CC8CF2"/>
</linearGradient>
<linearGradient id="paint21_linear_3_6" x1="950.31" y1="1857.31" x2="950.31" y2="3220.85" gradientUnits="userSpaceOnUse">
<stop stop-color="#A98AF4"/>
<stop offset="1" stop-color="#CC8CF2"/>
</linearGradient>
<linearGradient id="paint22_linear_3_6" x1="950.31" y1="-1110.49" x2="950.31" y2="118.084" gradientUnits="userSpaceOnUse">
<stop stop-color="#A98AF4"/>
<stop offset="1" stop-color="#CC8CF2"/>
</linearGradient>
<linearGradient id="paint23_linear_3_6" x1="950.31" y1="474.992" x2="950.31" y2="1345.13" gradientUnits="userSpaceOnUse">
<stop stop-color="#A98AF4"/>
<stop offset="1" stop-color="#CC8CF2"/>
</linearGradient>
<linearGradient id="paint24_linear_3_6" x1="950.31" y1="-498.549" x2="950.31" y2="426.635" gradientUnits="userSpaceOnUse">
<stop stop-color="#A98AF4"/>
<stop offset="1" stop-color="#CC8CF2"/>
</linearGradient>
<linearGradient id="paint25_linear_3_6" x1="950.31" y1="-222.273" x2="950.31" y2="521.935" gradientUnits="userSpaceOnUse">
<stop stop-color="#A98AF4"/>
<stop offset="1" stop-color="#CC8CF2"/>
</linearGradient>
<linearGradient id="paint26_linear_3_6" x1="950.31" y1="54.0027" x2="950.31" y2="871.447" gradientUnits="userSpaceOnUse">
<stop stop-color="#A98AF4"/>
<stop offset="1" stop-color="#CC8CF2"/>
</linearGradient>
<linearGradient id="paint27_linear_3_6" x1="950.31" y1="-853.811" x2="950.31" y2="3.18445" gradientUnits="userSpaceOnUse">
<stop stop-color="#A98AF4"/>
<stop offset="1" stop-color="#CC8CF2"/>
</linearGradient>
<linearGradient id="paint28_linear_3_6" x1="950.31" y1="-895.358" x2="950.31" y2="158.34" gradientUnits="userSpaceOnUse">
<stop stop-color="#A98AF4"/>
<stop offset="1" stop-color="#CC8CF2"/>
</linearGradient>
<linearGradient id="paint29_linear_3_6" x1="950.31" y1="357.273" x2="950.31" y2="1017.1" gradientUnits="userSpaceOnUse">
<stop stop-color="#A98AF4"/>
<stop offset="1" stop-color="#CC8CF2"/>
</linearGradient>
<linearGradient id="paint30_linear_3_6" x1="950.31" y1="733.074" x2="950.31" y2="1663.77" gradientUnits="userSpaceOnUse">
<stop stop-color="#A98AF4"/>
<stop offset="1" stop-color="#CC8CF2"/>
</linearGradient>
<linearGradient id="paint31_linear_3_6" x1="950.31" y1="1240.56" x2="950.31" y2="2413.38" gradientUnits="userSpaceOnUse">
<stop stop-color="#A98AF4"/>
<stop offset="1" stop-color="#CC8CF2"/>
</linearGradient>
<linearGradient id="paint32_linear_3_6" x1="950.31" y1="2413.38" x2="950.31" y2="3842.53" gradientUnits="userSpaceOnUse">
<stop stop-color="#A98AF4"/>
<stop offset="1" stop-color="#CC8CF2"/>
</linearGradient>
<linearGradient id="paint33_linear_3_6" x1="1094.72" y1="-2153.04" x2="1094.72" y2="69.8472" gradientUnits="userSpaceOnUse">
<stop stop-color="#A98AF4"/>
<stop offset="1" stop-color="#CC8CF2"/>
</linearGradient>
<linearGradient id="paint34_linear_3_6" x1="1021.52" y1="-2277.68" x2="1021.52" y2="237.679" gradientUnits="userSpaceOnUse">
<stop stop-color="#A98AF4"/>
<stop offset="1" stop-color="#CC8CF2"/>
</linearGradient>
<linearGradient id="paint35_linear_3_6" x1="950.31" y1="952.664" x2="950.31" y2="1807.19" gradientUnits="userSpaceOnUse">
<stop stop-color="#A98AF4"/>
<stop offset="1" stop-color="#CC8CF2"/>
</linearGradient>
<clipPath id="clip0_3_6">
<rect width="1900" height="3778" fill="white"/>
</clipPath>
</defs>
</svg>
