<svg width="40" height="40" viewBox="0 0 40 40" fill="none" xmlns="http://www.w3.org/2000/svg">
<path d="M40 0H0V40H40V0Z" fill="black"/>
<path d="M13.4416 21.0371C13.4416 20.0265 14.2607 19.2074 15.2713 19.2074H18.1707C19.1813 19.2074 20.0003 20.0265 20.0003 21.0371V25.4308C20.0003 26.4414 19.1813 27.2604 18.1707 27.2604H15.2713C14.2607 27.2604 13.4416 26.4414 13.4416 25.4308V21.0371ZM13.2568 27.7569C13.2568 30.4105 15.4079 32.5 18.0615 32.5H20.9762C23.6707 32.5 25.8553 30.3154 25.8553 27.6209V18.783C25.8553 16.0885 23.6707 13.9038 20.9762 13.9038H17.3168C15.1718 13.9038 13.4288 15.6957 13.4135 17.8401V7.5H7.55859V32.378H13.2568V27.7569Z" fill="white"/>
<path d="M32.4434 27.2605H27.3203V32.3836H32.4434V27.2605Z" fill="white"/>
</svg>
